<?xml version="1.0" encoding="utf-8"?>
<svg viewBox="0 -0.0004 24 23.9999" width="24px" height="24px" xmlns="http://www.w3.org/2000/svg">
  <path fill="#283593" fill-rule="evenodd" d="M 11.307 0.163 C 11.736 -0.054 12.264 -0.054 12.692 0.163 C 14.811 1.239 21.188 4.478 23.307 5.554 C 23.736 5.771 24 6.174 24 6.609 C 24 8.761 24 15.238 24 17.39 C 24 17.826 23.736 18.228 23.307 18.446 C 21.188 19.522 14.812 22.76 12.692 23.836 C 12.263 24.054 11.735 24.054 11.307 23.836 C 9.188 22.76 2.812 19.522 0.692 18.446 C 0.264 18.228 0 17.826 0 17.391 C 0 15.239 0 8.762 0 6.61 C 0 6.174 0.264 5.772 0.693 5.554 C 2.811 4.478 9.189 1.239 11.307 0.163 Z" clip-rule="evenodd" id="path2" style="fill:#004482;fill-opacity:1"/>
  <path fill="#5c6bc0" fill-rule="evenodd" d="M 0.192 17.945 C 0.024 17.742 0 17.548 0 17.288 C 0 15.149 0 8.709 0 6.569 C 0 6.136 0.263 5.736 0.691 5.52 C 2.802 4.45 9.157 1.23 11.269 0.16 C 11.696 -0.057 12.275 -0.052 12.703 0.164 C 14.814 1.234 21.148 4.427 23.259 5.496 C 23.43 5.583 23.56 5.688 23.676 5.826 L 0.192 17.945 Z" clip-rule="evenodd" id="path4" style="fill:#659ad2;fill-opacity:1"/>
  <path fill="#ffffff" fill-rule="evenodd" d="M 12 4 C 16.88 4 20.842 7.584 20.842 12 C 20.842 16.415 16.88 20 12 20 C 7.12 20 3.158 16.415 3.158 12 C 3.158 7.584 7.12 4 12 4 Z M 12 8 C 14.44 8 16.421 9.792 16.421 12 C 16.421 14.207 14.44 16 12 16 C 9.56 16 7.579 14.207 7.579 12 C 7.579 9.792 9.56 8 12 8 Z" clip-rule="evenodd" id="path6"/>
  <path fill="#3949ab" fill-rule="evenodd" d="M 23.675 5.831 C 24.001 6.107 23.994 6.523 23.994 6.851 C 23.994 9.019 23.974 15.187 24 17.356 C 24.002 17.582 23.92 17.82 23.796 18 L 11.743 12 L 23.675 5.831 Z" clip-rule="evenodd" id="path8" style="fill:#00599c;fill-opacity:1"/>
</svg>