<?xml version="1.0" encoding="utf-8"?>
<svg viewBox="0 0 24 24" width="24px" height="24px" xmlns="http://www.w3.org/2000/svg">
  <path d="M 12 0 C 5.383 0 0 5.383 0 12 C 0 18.617 5.383 24 12 24 C 18.617 24 24 18.617 24 12 C 24 5.383 18.617 0 12 0" id="path8" style="fill: rgb(255, 255, 255);" transform="matrix(0.9999999999999999, 0, 0, 0.9999999999999999, -3.552713678800501e-15, -2.220446049250313e-16)"/>
  <path d="M 11.561 12.216 C 11.453 12.449 11.334 12.712 11.211 12.991 C 10.776 13.978 10.293 15.178 10.117 15.947 C 10.054 16.221 10.015 16.561 10.015 16.937 C 10.015 17.086 10.023 17.243 10.036 17.402 C 10.652 17.628 11.317 17.753 12.011 17.754 C 12.643 17.753 13.251 17.648 13.819 17.459 C 13.685 17.337 13.558 17.207 13.442 17.06 C 12.671 16.077 12.241 14.637 11.561 12.216" id="path10" style="fill: rgb(145, 220, 71);" transform="matrix(0.9999999999999999, 0, 0, 0.9999999999999999, -3.552713678800501e-15, -2.220446049250313e-16)"/>
  <path d="M 8.716 7.333 C 7.244 8.371 6.281 10.081 6.277 12.02 C 6.281 13.93 7.215 15.618 8.65 16.66 C 9.002 15.194 9.884 13.852 11.207 11.161 C 11.128 10.945 11.039 10.709 10.939 10.461 C 10.572 9.542 10.043 8.474 9.571 7.991 C 9.331 7.738 9.039 7.52 8.716 7.333" id="path12" style="fill: rgb(145, 220, 71);" transform="matrix(0.9999999999999999, 0, 0, 0.9999999999999999, -3.552713678800501e-15, -2.220446049250313e-16)"/>
  <path d="M 17.006 18.597 C 16.246 18.501 15.62 18.387 15.071 18.193 C 14.149 18.651 13.111 18.91 12.011 18.91 C 8.206 18.91 5.122 15.826 5.122 12.02 C 5.122 9.955 6.031 8.104 7.471 6.841 C 7.086 6.748 6.684 6.694 6.274 6.695 C 4.253 6.714 2.119 7.833 1.231 10.854 C 1.147 11.294 1.167 11.626 1.167 12.02 C 1.167 18.009 6.023 22.865 12.011 22.865 C 15.679 22.865 18.919 21.042 20.881 18.255 C 19.82 18.52 18.799 18.646 17.925 18.649 C 17.598 18.649 17.29 18.631 17.006 18.597" id="path14" style="fill: rgb(99, 177, 50);" transform="matrix(0.9999999999999999, 0, 0, 0.9999999999999999, -3.552713678800501e-15, -2.220446049250313e-16)"/>
  <path d="M 14.968 16.495 C 15.035 16.528 15.187 16.583 15.398 16.643 C 16.819 15.599 17.742 13.919 17.746 12.02 L 17.745 12.02 C 17.74 8.854 15.178 6.292 12.011 6.286 C 11.382 6.287 10.777 6.391 10.211 6.579 C 11.375 7.906 11.935 9.802 12.477 11.877 C 12.477 11.878 12.477 11.879 12.478 11.879 C 12.479 11.881 12.651 12.456 12.947 13.218 C 13.24 13.979 13.658 14.921 14.115 15.607 C 14.414 16.068 14.744 16.398 14.968 16.495" id="path16" style="fill: rgb(144, 180, 254);" transform="matrix(0.9999999999999999, 0, 0, 0.9999999999999999, -3.552713678800501e-15, -2.220446049250313e-16)"/>
  <path d="M 12.011 1.176 C 8.379 1.176 5.166 2.964 3.198 5.705 C 4.222 5.064 5.268 4.833 6.181 4.841 C 7.441 4.845 8.432 5.235 8.908 5.503 C 9.023 5.569 9.132 5.64 9.239 5.713 C 10.087 5.34 11.025 5.131 12.011 5.131 C 15.816 5.131 18.901 8.215 18.902 12.02 L 18.901 12.02 C 18.901 13.939 18.116 15.673 16.851 16.922 C 17.162 16.957 17.493 16.979 17.831 16.977 C 19.032 16.978 20.33 16.713 21.304 15.894 C 21.938 15.36 22.47 14.577 22.765 13.403 C 22.822 12.95 22.856 12.489 22.856 12.02 C 22.856 6.031 18.001 1.176 12.011 1.176" id="path18" style="fill: rgb(88, 129, 216);" transform="matrix(0.9999999999999999, 0, 0, 0.9999999999999999, -3.552713678800501e-15, -2.220446049250313e-16)"/>
</svg>