<?xml version="1.0" encoding="utf-8"?>
<svg viewBox="0 0 800 800" width="800px" height="800px" xmlns="http://www.w3.org/2000/svg" xmlns:xlink="http://www.w3.org/1999/xlink">
  <defs>
    <symbol height="256px" id="svg_7" viewBox="0 0 32.00 32.00" width="256px" xmlns="http://www.w3.org/2000/svg">
      <g id="svg_6" stroke-width="0"/>
      <g id="svg_5" stroke-linecap="round" stroke-linejoin="round"/>
      <g id="svg_2">
        <path clip-rule="evenodd" d="m13.02,2c-2.2,0 -3.98,1.72 -3.98,3.85l0,2.67l6.88,0l0,0.74l-9.94,0c-2.2,0 -3.98,1.72 -3.98,3.85l0,5.78c0,2.13 1.78,3.85 3.98,3.85l2.29,0l0,-3.26c0,-2.13 1.78,-3.85 3.98,-3.85l7.35,0c1.85,0 3.36,-1.46 3.36,-3.26l0,-6.52c0,-2.13 -1.78,-3.85 -3.98,-3.85l-5.96,0zm-0.92,4.74c0.76,0 1.38,-0.6 1.38,-1.33c0,-0.74 -0.62,-1.34 -1.38,-1.34c-0.76,0 -1.38,0.6 -1.38,1.34c0,0.73 0.62,1.33 1.38,1.33z" fill="url(#svg_4)" fill-rule="evenodd"/>
        <path clip-rule="evenodd" d="m18.98,30c2.2,0 3.98,-1.72 3.98,-3.85l0,-2.67l-6.88,0l0,-0.74l9.94,0c2.2,0 3.98,-1.72 3.98,-3.85l0,-5.78c0,-2.13 -1.78,-3.85 -3.98,-3.85l-2.29,0l0,3.26c0,2.13 -1.78,3.85 -3.98,3.85l-7.35,0c-1.85,0 -3.36,1.46 -3.36,3.26l0,6.52c0,2.13 1.78,3.85 3.98,3.85l5.96,0zm0.92,-4.74c-0.76,0 -1.38,0.6 -1.38,1.33c0,0.74 0.62,1.34 1.38,1.34c0.76,0 1.38,-0.6 1.38,-1.34c0,-0.73 -0.62,-1.33 -1.38,-1.33z" fill="url(#svg_3)" fill-rule="evenodd"/>
        <defs>
          <linearGradient gradientUnits="userSpaceOnUse" id="svg_4" x1="12.48" x2="12.48" y1="2" y2="22.74">
            <stop stop-color="#327EBD"/>
            <stop offset="1" stop-color="#1565A7"/>
          </linearGradient>
          <linearGradient gradientUnits="userSpaceOnUse" id="svg_3" x1="19.52" x2="19.52" y1="9.26" y2="30">
            <stop stop-color="#FFDA4B"/>
            <stop offset="1" stop-color="#F9C600"/>
          </linearGradient>
        </defs>
      </g>
    </symbol>
  </defs>
  <g class="layer">
    <title>Layer 1</title>
    <g id="SVGRepo_bgCarrier" stroke-width="0"/>
    <g id="SVGRepo_tracerCarrier" stroke-linecap="round" stroke-linejoin="round"/>
    <use id="svg_8" transform="matrix(3.535789966583252, 0, 0, 3.5449399948120117, -53.587394014790334, -52.76888240759581)" xlink:href="#svg_7"/>
  </g>
</svg>